<svg xmlns="http://www.w3.org/2000/svg" xml:space="preserve" width="8.11297in" height="5.99031in" shape-rendering="geometricPrecision" text-rendering="geometricPrecision" image-rendering="optimizeQuality" fill-rule="evenodd" clip-rule="evenodd"
viewBox="0 0 0.83204 0.614347"
 xmlns:xlink="http://www.w3.org/1999/xlink">
 <g id="Layer_x0020_1">
  <metadata id="CorelCorpID_0Corel-Layer"/>
  <path fill="white" d="M0.0181344 0.133748l0.275999 -0.126063c0.0138423,-0.00632259 0.0308054,0.000847103 0.0376957,0.0159322l0.18362 0.402014c0.00688988,0.0150851 0.00120201,0.0326005 -0.0126407,0.0389231l-0.275999 0.126063c-0.0138423,0.00632259 -0.0308054,-0.000846699 -0.0376957,-0.0159318l-0.18362 -0.402015c-0.00688988,-0.0150851 -0.00120201,-0.0326001 0.0126407,-0.0389227z"/>
  <path fill="#1F1A17" fill-rule="nonzero" d="M0.0170672 0.13141l0.27599 -0.126058 -1.61507e-006 -3.6339e-006 5.24897e-006 -2.4226e-006c5.12784e-005,-2.34185e-005 0.000103768,-4.44144e-005 0.00015545,-6.46027e-005 0.00756659,-0.00340295 0.0159456,-0.00316149 0.0233684,-2.4226e-005 0.00739984,0.00312798 0.0138553,0.0091429 0.0175768,0.0172869l6.0565e-006 1.33243e-005 1.25168e-005 2.78599e-005 1.61507e-006 -8.07534e-007 2.82637e-006 6.46027e-006 2.34185e-005 5.49123e-005 0.183576 0.401918 1.41318e-005 3.10901e-005 4.44144e-006 1.00942e-005 1.61507e-006 -8.07534e-007 2.82637e-006 6.46027e-006 2.9475e-005 7.02554e-005c0.00367468,0.00812056 0.00398316,0.0168912 0.00151413,0.0244933 -0.00250416,0.00771195 -0.00786255,0.0142372 -0.0154675,0.0177141l-6.17763e-005 2.78599e-005 -0.275937 0.126034 1.61507e-006 3.6339e-006 -5.24897e-006 2.4226e-006c-5.16822e-005,2.38222e-005 -0.000102961,4.64332e-005 -0.000155046,6.66215e-005 -0.00209192,0.000940373 -0.0042448,0.00160174 -0.0064207,0.00200026 -0.0022296,0.000408612 -0.00447818,0.00054347 -0.00670455,0.000421936l-1.00942e-005 -4.03767e-007 0 4.03767e-007c-0.0113911,-0.000624627 -0.022445,-0.00793806 -0.0278135,-0.0196897l-0.18362 -0.402017 -2.82637e-006 -6.46027e-006 -1.53431e-005 -3.4724e-005 -2.01883e-006 8.07534e-007 -2.82637e-006 -6.46027e-006 -2.58411e-005 -6.25839e-005c-0.00101507,-0.00224333 -0.00177536,-0.00454117 -0.00228936,-0.00685112 -0.000521667,-0.00234185 -0.000790576,-0.00469823 -0.000819243,-0.00702595 -0.000149394,-0.0120553 0.00614251,-0.0233498 0.0170672,-0.028342l0 4.03767e-007 0 4.03767e-007zm0.278134 -0.12139l-0.275999 0.126062c-0.00900562,0.00411519 -0.0141912,0.0135262 -0.0140664,0.0236091 2.4226e-005,0.00197765 0.000253566,0.00398276 0.000698113,0.00597858 0.000436876,0.00196271 0.00108573,0.00392179 0.00195464,0.0058413 2.09959e-005,4.11842e-005 3.99729e-005,8.3176e-005 5.85462e-005,0.000125975l2.82637e-006 6.46027e-006 -1.61507e-006 8.07534e-007 0.183601 0.401975c0.00455288,0.00996618 0.0138597,0.0161648 0.0234229,0.0166889l0 4.03767e-007c0.00184521,0.000100134 0.00369245,-8.88287e-006 0.00550657,-0.000341587 0.0017798,-0.000326244 0.00353659,-0.000865676 0.00523766,-0.0016296 3.59353e-005,-1.85733e-005 7.18705e-005,-3.75503e-005 0.000109017,-5.45085e-005l5.24897e-006 -2.4226e-006 1.61507e-006 4.03767e-006 3.23014e-006 -1.61507e-006 5.24897e-006 -2.4226e-006 0.275999 -0.126063 0 4.03767e-007 7.2678e-006 -3.6339e-006c0.00622851,-0.00284777 0.0106324,-0.00823927 0.0127082,-0.0146325 0.00209353,-0.00644573 0.00182382,-0.0138952 -0.00130861,-0.0208041 -1.85733e-005,-3.71466e-005 -3.67428e-005,-7.59082e-005 -5.32972e-005,-0.000114266l-2.82637e-006 -6.46027e-006 1.61507e-006 -8.07534e-007 -0.183561 -0.401887c-2.05921e-005,-4.11842e-005 -4.11842e-005,-8.39835e-005 -5.97575e-005,-0.000126783l-2.82637e-006 -6.46027e-006 1.2113e-006 -4.03767e-007c-0.00317119,-0.00691209 -0.00863254,-0.0120076 -0.0148792,-0.0146483 -0.00614937,-0.00259905 -0.0130582,-0.00281426 -0.0192613,-2.66486e-005 -3.67428e-005,1.93808e-005 -7.51006e-005,3.71466e-005 -0.000113459,5.49123e-005l-5.24897e-006 2.4226e-006 -1.61507e-006 -3.6339e-006 -2.82637e-006 8.07534e-007 -4.03767e-007 4.03767e-007m8.07534e-007 0l-5.65274e-006 2.82637e-006m5.65274e-006 -2.82637e-006l0 0 0 0z"/>
  <path fill="white" d="M0.132078 0.0786489l0.293941 -0.0752783c0.0147423,-0.00377562 0.0301703,0.00627979 0.0342847,0.0223457l0.109649 0.428146c0.00411438,0.0160655 -0.00458074,0.0322993 -0.0193231,0.0360746l-0.293941 0.0752787c-0.0147419,0.00377522 -0.0301703,-0.00628019 -0.0342847,-0.0223457l-0.109649 -0.428148c-0.00411438,-0.0160655 0.00458114,-0.0322989 0.0193231,-0.0360746l0 8.07534e-007 0 4.03767e-007z"/>
  <path fill="#1F1A17" fill-rule="nonzero" d="M0.131443 0.0761613l0.293931 -0.0752759 -8.07534e-007 -2.4226e-006 9.28664e-006 -2.4226e-006 1.17092e-005 -2.82637e-006 -1.61507e-006 -6.86404e-006c0.00808987,-0.0020685 0.0163554,-0.000352892 0.0231528,0.00407764 0.0067207,0.00438087 0.0120056,0.0114306 0.0142348,0.0200947l7.2678e-006 -2.01883e-006 2.82637e-006 1.04979e-005c2.01883e-005,7.55044e-005 3.75503e-005,0.000151816 5.04709e-005,0.000226917l0.109592 0.427921 7.2678e-006 -2.01883e-006 2.82637e-006 1.04979e-005 8.07534e-006 3.06863e-005 1.61507e-006 -4.03767e-007c0.00221628,0.00866565 0.000969444,0.0173955 -0.00282475,0.0244788 -0.00382892,0.00714829 -0.0102537,0.0126234 -0.0183468,0.0147024l8.07534e-007 2.4226e-006 -9.28664e-006 2.4226e-006c-4.52219e-005,1.17092e-005 -9.004e-005,2.30147e-005 -0.000135666,3.23014e-005l-0.293804 0.075244 8.07534e-007 2.4226e-006 -9.28664e-006 2.4226e-006 -1.17092e-005 3.23014e-006 1.61507e-006 6.46027e-006c-0.00808987,0.0020689 -0.016355,0.000353296 -0.0231524,-0.00407724 -0.0067211,-0.00438127 -0.0120056,-0.0114314 -0.014234,-0.0200955l-7.2678e-006 2.01883e-006 -2.82637e-006 -1.04979e-005c-1.8977e-005,-7.1063e-005 -3.39164e-005,-0.000141318 -4.6837e-005,-0.000212785l-0.109595 -0.427935 -7.2678e-006 2.01883e-006 -2.82637e-006 -1.04979e-005 -7.67157e-006 -3.06863e-005 -2.01883e-006 4.03767e-007c-0.000614129,-0.00240201 -0.000961773,-0.0048347 -0.0010615,-0.00725569 -9.89229e-005,-0.00240484 5.24897e-005,-0.00477091 0.000434049,-0.00705704 0.00198573,-0.0118897 0.0101782,-0.0218914 0.0218143,-0.0248728l1.2113e-006 -4.03767e-007 -4.03767e-007 0zm0.295208 -0.0703031l-0.293941 0.0752783c-0.0095822,0.0024549 -0.0163469,0.0107987 -0.0180076,0.0207439 -0.000327051,0.00195908 -0.000457468,0.00397428 -0.000373484,0.00600967 8.3176e-005,0.00201964 0.00038479,0.00409258 0.000920185,0.00618813l-8.88287e-006 2.4226e-006 2.01883e-006 8.07534e-006 0.109598 0.427947c1.8977e-005,5.53161e-005 3.55315e-005,0.000110632 5.08746e-005,0.000167967l2.82637e-006 1.04979e-005 -7.2678e-006 2.01883e-006 0 8.07534e-007 7.2678e-006 2.74561e-005c0.00189084,0.00737803 0.00637185,0.0133711 0.0120658,0.0170826 0.00562488,0.0036662 0.0124393,0.0050919 0.019084,0.00339245l2.4226e-006 9.28664e-006 6.86404e-006 -2.01883e-006 0.293851 -0.0752561 7.7927e-005 -2.26109e-005 9.28664e-006 -2.4226e-006 8.07534e-007 2.4226e-006 9.28664e-006 -2.4226e-006c0.0066347,-0.00170188 0.0119216,-0.00622689 0.0150928,-0.0121465 0.00320712,-0.00598746 0.00425247,-0.013401 0.00236204,-0.0207932l9.28664e-006 -2.4226e-006 -2.4226e-006 -8.07534e-006 -0.109603 -0.427959c-1.69582e-005,-5.08746e-005 -3.35127e-005,-0.000103364 -4.76445e-005,-0.000156258l-2.82637e-006 -1.04979e-005 7.2678e-006 -2.01883e-006 -4.44144e-006 -1.77657e-005 -2.82637e-006 -1.04979e-005c-0.00189165,-0.00737763 -0.00637265,-0.0133707 -0.0120666,-0.0170818 -0.00562488,-0.0036662 -0.0124393,-0.0050919 -0.0190844,-0.00339285l-2.4226e-006 -8.88287e-006 -6.86404e-006 1.61507e-006 8.07534e-007 4.03767e-007z"/>
  <path fill="white" d="M0.258108 0.0400932l0.302925 -0.017431c0.0151925,-0.000874155 0.0284026,0.0119567 0.0293555,0.0285136l0.0253897 0.441234c0.00095289,0.0165569 -0.0106982,0.0308187 -0.0258911,0.0316929l-0.302925 0.017431c-0.0151929,0.000874155 -0.028403,-0.0119567 -0.0293555,-0.0285136l-0.0253901 -0.441234c-0.000952486,-0.0165569 0.0106982,-0.0308183 0.0258911,-0.0316929l4.03767e-007 0z"/>
  <path fill="#1F1A17" fill-rule="nonzero" d="M0.257969 0.0375253l0.302924 -0.0174322 4.19918e-005 -2.4226e-006c0.0083281,-0.000465139 0.0160986,0.00280376 0.02191,0.00844801 0.00575327,0.00558773 0.00958543,0.0135173 0.0101107,0.022441l2.82637e-006 4.60294e-005 3.6339e-006 7.63119e-005 0.0253852 0.441168 2.4226e-006 4.60294e-005c0.000500671,0.00892123 -0.00239474,0.017234 -0.00746727,0.0234435 -0.00512784,0.00627656 -0.0124728,0.0104168 -0.0208005,0.0109098l-7.67157e-005 4.03767e-006 -0.302902 0.0174282 -4.19918e-005 2.4226e-006c-0.0083281,0.000466351 -0.0160978,-0.00280174 -0.0219088,-0.0084464 -0.00575247,-0.00558773 -0.00958422,-0.0135173 -0.0101091,-0.0224414l-2.82637e-006 -4.56257e-005 -1.2113e-006 -2.82637e-005 -0.0253913 -0.441215 -1.2113e-006 -3.39164e-005 -8.07534e-007 -1.2113e-005 -4.03767e-007 0c-0.000140915,-0.00251628 -1.65544e-005,-0.00496633 0.000346028,-0.00731787 0.000362986,-0.00235436 0.000971463,-0.00464736 0.00179797,-0.00684425 0.00423996,-0.011274 0.0141956,-0.0195032 0.026179,-0.0201932l0 4.03767e-007 4.03767e-007 -4.03767e-007zm0.303206 -0.0122967l-0.302924 0.0174322c-0.00986726,0.0005681 -0.0181021,0.00744344 -0.0216472,0.0168702 -0.000688826,0.00183149 -0.00120201,0.00378007 -0.00151614,0.00581707 -0.000314534,0.00203983 -0.000424359,0.00413377 -0.000305652,0.00625031l-4.03767e-007 0 2.82637e-006 4.60294e-005 0.0253877 0.441149 4.8452e-006 7.42931e-005 2.82637e-006 4.56257e-005c0.00044697,0.00759647 0.00369043,0.0143293 0.00855865,0.0190578 0.00481008,0.00467199 0.0112098,0.00737884 0.0180415,0.00699607l4.19918e-005 -2.4226e-006 0.302927 -0.0174298 6.0565e-006 -4.03767e-007 2.58411e-005 -2.01883e-006c0.00682931,-0.000404574 0.0128745,-0.0038265 0.0171149,-0.00901692 0.00429527,-0.00525785 0.00674573,-0.0123193 0.00631895,-0.0199186l8.07534e-007 0 -8.07534e-007 -1.00942e-005 -4.03767e-007 -9.69041e-006 -2.01883e-006 -2.62448e-005 -0.0253868 -0.441197 -2.01883e-006 -2.74561e-005 -2.82637e-006 -4.60294e-005c-0.000447374,-0.00759607 -0.00369164,-0.0143289 -0.00856026,-0.0190574 -0.00481008,-0.00467199 -0.011211,-0.00737924 -0.0180427,-0.00699768l-4.19918e-005 2.4226e-006 -4.03767e-007 8.07534e-007 -4.03767e-007 -4.03767e-007z"/>
  <path fill="white" d="M0.38839 0.0276358l0.30106 0.0378212c0.0150993,0.0018969 0.0257619,0.0169118 0.0236947,0.0333665l-0.0550891 0.438517c-0.00206729,0.0164551 -0.0161127,0.0283658 -0.031212,0.0264689l-0.30106 -0.0378208c-0.0150993,-0.0018969 -0.0257619,-0.0169118 -0.0236951,-0.0333665l0.0550896 -0.438517c0.00206729,-0.0164547 0.0161123,-0.0283658 0.0312116,-0.0264689l4.03767e-007 -4.03767e-007z"/>
  <path fill="#1F1A17" fill-rule="nonzero" d="M0.388702 0.0250784l0.301061 0.03782 1.93808e-005 2.4226e-006c7.75232e-005,9.28664e-006 0.000153835,2.30147e-005 0.000228936,3.91654e-005 0.00226109,0.000303229 0.00441923,0.000868099 0.00645139,0.00166271 0.00211332,0.000825703 0.00409904,0.00189528 0.00593053,0.00317159 0.00936134,0.00652447 0.0149192,0.0185523 0.013311,0.0313622l-0.0550896 0.438516c-9.69041e-006,7.87345e-005 -2.22072e-005,0.000156662 -3.83579e-005,0.00023257 -0.000318976,0.00241776 -0.000876578,0.00473861 -0.00164131,0.00693793 -0.000787749,0.00226594 -0.00179797,0.00440994 -0.00299595,0.00640213 -0.0062164,0.010336 -0.0175017,0.016638 -0.0294067,0.0151437l-0.30106 -0.0378221 -1.93808e-005 -2.4226e-006c-7.87345e-005,-9.69041e-006 -0.000155854,-2.18034e-005 -0.000231762,-3.83579e-005 -0.00225948,-0.000303633 -0.00441721,-0.00086931 -0.00644816,-0.00166312 -0.00211332,-0.000825703 -0.00409904,-0.00189528 -0.00593053,-0.00317159 -0.00936134,-0.00652447 -0.0149196,-0.0185519 -0.0133102,-0.031361l0.0550904 -0.438517c9.69041e-006,-7.83308e-005 2.30147e-005,-0.000155046 3.95692e-005,-0.000230955 0.00116043,-0.00879768 0.00549971,-0.0163857 0.0115744,-0.0215373 0.0061849,-0.00524493 0.0141645,-0.00798288 0.0224466,-0.00694883l1.93808e-005 2.4226e-006 -8.07534e-007 -4.03767e-007zm0.300436 0.0429358l-0.301061 -0.03782 -1.93808e-005 -2.4226e-006c-0.00680226,-0.000849526 -0.0133804,0.00141964 -0.0184994,0.00576095 -0.00513955,0.00435826 -0.00881342,0.0107927 -0.00980346,0.0182664 -2.82637e-006,6.5814e-005 -9.69041e-006,0.000131628 -1.77657e-005,0.00019825l-0.0550904 0.438517c-0.00136594,0.010873 0.00328505,0.0210359 0.0111347,0.0265069 0.00151655,0.00105706 0.00314534,0.00193647 0.00486378,0.00260793 0.00167321,0.000654102 0.00342838,0.00111803 0.0052417,0.00136392 6.29876e-005,3.23014e-006 0.000125572,7.67157e-006 0.000188963,1.53431e-005l1.93808e-005 2.4226e-006 0.30106 0.0378221c0.00982607,0.0012331 0.0191818,-0.00403646 0.0243718,-0.0126662 0.00102032,-0.00169663 0.00188075,-0.00352367 0.00255261,-0.0054557 0.000654506,-0.00188277 0.00113135,-0.00386122 0.00140269,-0.00591196 3.23014e-006,-6.33914e-005 7.67157e-006,-0.000127187 1.53431e-005,-0.000190982l0.0550896 -0.438516c0.00136514,-0.0108743 -0.00328586,-0.0210371 -0.0111355,-0.0265081 -0.00151655,-0.00105706 -0.00314534,-0.00193647 -0.00486378,-0.00260793 -0.00167119,-0.000653699 -0.00342273,-0.00111561 -0.00523322,-0.00136191 -6.54102e-005,-3.23014e-006 -0.000131628,-9.69041e-006 -0.000197846,-1.77657e-005l-1.93808e-005 -2.4226e-006 8.07534e-007 4.03767e-007z"/>
  <path fill="white" d="M0.52578 0.0353603l0.285853 0.101761c0.014337,0.00510361 0.0215159,0.0220626 0.015954,0.037686l-0.148223 0.416368c-0.00556189,0.0156234 -0.0218426,0.0242309 -0.0361791,0.0191268l-0.285853 -0.101761c-0.0143366,-0.00510361 -0.0215159,-0.0220622 -0.015954,-0.037686l0.148224 -0.416368c0.00556189,-0.0156238 0.0218422,-0.0242309 0.0361787,-0.0191272l-4.03767e-007 4.03767e-007z"/>
  <path fill="#1F1A17" fill-rule="nonzero" d="M0.526635 0.0329332l0.285852 0.101761 6.86404e-006 2.4226e-006c0.00787467,0.00280578 0.0137781,0.00885017 0.0169433,0.0163263 0.00312717,0.0073853 0.00357536,0.0161761 0.000592326,0.024593l-1.65544e-005 4.6837e-005 -0.148224 0.416368 -2.38222e-005 6.70253e-005c-0.00084145,0.00235113 -0.00190255,0.00454601 -0.00314292,0.00656323 -0.00124966,0.00203176 -0.00270201,0.0039121 -0.00431667,0.00561721 -0.00828853,0.00875447 -0.020668,0.0124752 -0.0319775,0.00845125l-0.285852 -0.101761 -6.86404e-006 -2.4226e-006c-0.00220537,-0.00078573 -0.00426499,-0.0018327 -0.00615825,-0.0030981 -0.00188721,-0.00126137 -0.00359756,-0.0027335 -0.00511371,-0.00437562 -0.00773981,-0.00838301 -0.0105791,-0.0213286 -0.00624829,-0.0334941l0.148225 -0.416368 4.8452e-006 -1.29205e-005c0.00084468,-0.00237173 0.00191184,-0.00458437 0.0031623,-0.00661734 0.00124966,-0.00203176 0.0027016,-0.0039121 0.00431627,-0.00561721 0.00828853,-0.00875447 0.0206672,-0.0124756 0.0319779,-0.00845044zm0.284141 0.106615l-0.285852 -0.101761c-0.00933025,-0.00332018 -0.0196073,-0.000180888 -0.02654,0.00714143 -0.00134495,0.00142005 -0.0025728,0.00301695 -0.00365167,0.00477091 -0.00107725,0.00175154 -0.00198896,0.00363673 -0.0027008,0.00563618l-4.03767e-007 0 -2.4226e-006 7.2678e-006 -0.148225 0.416368c-0.00367589,0.0103263 -0.00131668,0.0212603 0.00518073,0.0282976 0.00125248,0.00135625 0.00265356,0.00256473 0.00418747,0.00358989 0.00152705,0.00102072 0.00320228,0.00187025 0.00500994,0.00251426l6.86404e-006 2.4226e-006 0.285852 0.101761c0.00932944,0.00331937 0.0196069,0.00018008 0.0265396,-0.00714223 0.00134495,-0.00142005 0.00257321,-0.00301695 0.00365207,-0.00477091 0.00107685,-0.00175114 0.00198855,-0.00363673 0.00270039,-0.00563618l4.03767e-007 0 2.4226e-006 -7.2678e-006 0.148224 -0.416368 1.65544e-005 -4.6837e-005c0.00254333,-0.00717575 0.00217388,-0.0146402 -0.000471196,-0.0208873 -0.00261601,-0.00617965 -0.00746848,-0.0111666 -0.0139223,-0.013466l-6.86404e-006 -2.4226e-006z"/>
  <path fill="#DA251D" fill-rule="nonzero" d="M0.0579143 0.17888c-0.00230914,-0.0054662 -0.0037841,-0.010569 -0.00442407,-0.0153068 -0.000646431,-0.00478343 -0.000446566,-0.00921033 0.000597979,-0.0132791 0.00105827,-0.00412004 0.00278438,-0.00735946 0.00517952,-0.00971907 0.0024121,-0.00237698 0.00548033,-0.00384103 0.00920346,-0.00439137l0 0c0.000789364,-0.000126379 0.00158277,-0.000200268 0.00238182,-0.000224091 0.000812379,-2.38222e-005 0.0016082,3.23014e-006 0.00238424,8.11571e-005 0.0040518,0.000406997 0.00809714,0.00215571 0.0121352,0.00524534l1.2113e-006 4.03767e-007 2.4226e-006 -2.01883e-006 6.29876e-005 4.72407e-005c1.61507e-005,1.33243e-005 3.31089e-005,2.70524e-005 4.92596e-005,4.07805e-005 0.000757467,0.000585058 0.00150161,0.0012117 0.00223202,0.00187832 0.000739297,0.000675906 0.00146608,0.00139744 0.00218115,0.00216419 0.00362462,0.00388424 0.006839,0.00885542 0.00964276,0.0149107 0.00206729,0.00446607 0.00357899,0.00869835 0.00453511,0.0126973 0.000965407,0.00403605 0.0013716,0.0078464 0.00122099,0.011429 -0.000152624,0.00360564 -0.000820051,0.00679903 -0.0020039,0.00958058l-8.07534e-007 2.01883e-006 2.4226e-006 1.2113e-006c-0.00119192,0.00280295 -0.0029047,0.00517387 -0.00513915,0.00711195l-6.86404e-006 5.65274e-006 8.07534e-007 1.2113e-006 -1.61507e-006 1.2113e-006c-2.13996e-005,1.85733e-005 -4.32031e-005,3.51277e-005 -6.50065e-005,5.08746e-005 -0.000853159,0.000727184 -0.00172126,0.00136433 -0.00260389,0.00191264 -0.000915743,0.0005681 -0.001844,0.0010397 -0.00278559,0.00141561 -0.00487872,0.00194616 -0.010137,0.0013825 -0.0157764,-0.00169017 -0.00384669,-0.00209555 -0.00735946,-0.00515207 -0.0105355,-0.00916995 -0.00314817,-0.00398033 -0.00597131,-0.00891114 -0.00846901,-0.0147908l-1.61507e-006 -4.03767e-006 0 0zm-0.0366915 -0.00321641l-0.00283485 -0.0062063c-0.000227725,-0.000499056 -8.07534e-006,-0.00108775 0.000490173,-0.00131547l0.00314656 -0.00143701c0.00327576,-0.00149636 0.00505153,-0.00396862 0.00532851,-0.00741599l8.07534e-007 -1.17092e-005 -2.01883e-006 -4.03767e-007c4.48181e-005,-0.000490577 5.28935e-005,-0.000988018 2.22072e-005,-0.00149192 -3.02825e-005,-0.000521667 -0.000100134,-0.0010607 -0.000206729,-0.00161749 -8.88287e-005,-0.000458275 0.000153835,-0.000902015 0.000560428,-0.00108734l-2.01883e-006 -3.6339e-006 0.00478585 -0.00218599c0.000498248,-0.000227321 0.00108654,-8.07534e-006 0.00131467,0.000490981 1.2113e-005,2.70524e-005 2.38222e-005,5.49123e-005 3.31089e-005,8.27722e-005l0.023301 0.0510143 3.6339e-006 -1.61507e-006c0.000881423,0.0019296 0.00154199,0.00311143 0.0019829,0.00354467 0.000115477,0.00011467 0.000251547,0.000184925 0.000404978,0.000209555 0.000213593,3.59353e-005 0.000479675,5.65274e-006 0.000796228,-8.88287e-005 9.73078e-005,-3.02825e-005 0.000195423,-4.40106e-005 0.000292327,-4.36068e-005 -4.44144e-006,-2.01883e-006 -1.57469e-005,-4.44144e-006 -1.61507e-006,-9.28664e-006 5.53161e-005,-1.49394e-005 0.000126783,-4.32031e-005 0.000215208,-8.35797e-005l0.00485086 -0.00221547c0.000498248,-0.000227725 0.00108734,-8.07534e-006 0.00131507,0.000490173l0.00299918 0.00656727c0.000227725,0.000498248 8.07534e-006,0.00108694 -0.000490173,0.00131467l-0.0243847 0.0111379c-0.000499056,0.000227725 -0.00108775,8.47911e-006 -0.00131547,-0.000490173l-0.00299958 -0.00656686c-0.000227725,-0.000498248 -8.07534e-006,-0.00108734 0.000490981,-0.00131547l0.00498087 -0.00227482c0.000103364,-4.72407e-005 0.000182099,-8.76174e-005 0.0002358,-0.000122341 4.36068e-005,-2.70524e-005 8.11571e-005,-5.65274e-005 0.000112651,-8.55986e-005 6.01613e-005,-5.69311e-005 0.000126379,-0.000103768 0.000195019,-0.000143337l-8.07534e-007 -1.2113e-006c0.000616956,-0.000346028 0.00107927,-0.000671464 0.00138775,-0.00097752 0.000216823,-0.0002144 0.000334319,-0.00038802 0.000354507,-0.000519648 2.9475e-005,-0.000200672 -4.72407e-005,-0.000593941 -0.00022934,-0.0011786 -0.000209555,-0.000670253 -0.000562851,-0.00155087 -0.0010607,-0.00264064l-0.00168492 -0.00368881 3.23014e-006 -1.61507e-006 -0.0150589 -0.0328016 -0.0080176 0.00366217c-0.000498248,0.000227725 -0.00108734,8.47911e-006 -0.00131507,-0.000490577zm0.0472056 -0.00177334l2.18034e-005 4.76445e-005 -2.82637e-006 1.2113e-006c0.00045666,0.00100053 0.000863657,0.00187711 0.00122018,0.00262852 0.000110632,0.000233377 0.000221264,0.000464736 0.000331089,0.00069569 0.000205114,0.000421936 0.000394884,0.000804304 0.000569311,0.00114791l8.07534e-007 -4.03767e-007 5.24897e-006 1.09017e-005c0.000530953,0.00103889 0.00108088,0.0020689 0.00164898,0.00308761 0.000546297,0.000981557 0.00109259,0.0019183 0.00163849,0.00281062 0.00277913,0.00454036 0.0055199,0.00788113 0.0082211,0.0100199l1.77657e-005 1.37281e-005 8.07534e-007 -4.03767e-007c0.000463121,0.000363794 0.000929068,0.000693672 0.00139623,0.000988825 0.000461506,0.000290712 0.000912917,0.000540644 0.00135343,0.000748988 0.00221547,0.00104454 0.00433888,0.00113701 0.00637144,0.000277792 0.00141036,-0.000596767 0.00249851,-0.00151695 0.00326324,-0.00276217 0.000788961,-0.00128196 0.00124966,-0.0029265 0.00138411,-0.00493282 1.2113e-006,-1.77657e-005 3.6339e-006,-3.43202e-005 4.8452e-006,-5.24897e-005 0.000123956,-0.00211776 -0.000222879,-0.00475113 -0.00103808,-0.0078997 -0.000839431,-0.00323821 -0.00216379,-0.00698355 -0.00397428,-0.011232l-1.61507e-006 -3.6339e-006 0 0c-0.00263418,-0.00622286 -0.00528127,-0.0113059 -0.00794129,-0.0152454 -0.00261479,-0.00387132 -0.00522474,-0.00661532 -0.00783267,-0.008232l-4.03767e-006 -2.4226e-006 -4.03767e-007 8.07534e-007c-0.00151009,-0.000953294 -0.00294023,-0.00151332 -0.0042876,-0.00168048l-4.03767e-007 3.23014e-006c-0.00130901,-0.000162718 -0.00255625,4.27993e-005 -0.00374171,0.000615341 -0.00118667,0.000573753 -0.00211776,0.00141682 -0.00279286,0.00252839 -0.00069569,0.00114831 -0.00113135,0.00259743 -0.00130659,0.00434817 -2.4226e-006,2.78599e-005 -6.46027e-006,5.57198e-005 -1.04979e-005,8.23684e-005 -0.000290308,0.0025833 9.28664e-006,0.00568463 0.0009004,0.0093044 0.000913725,0.00370941 0.00244077,0.00793806 0.00458275,0.0126831l2.82637e-006 -1.2113e-006z"/>
  <path fill="#DA251D" fill-rule="nonzero" d="M0.165853 0.155765c0.000513188,0.000259622 0.00104939,0.000447374 0.00160941,0.000562447 0.00103485,0.000213189 0.0021549,0.000182503 0.00335934,-9.28664e-005l-8.07534e-007 -3.6339e-006c0.00133647,-0.000341991 0.00241574,-0.000874559 0.0032366,-0.0015973 0.000802285,-0.000705785 0.0013724,-0.00160578 0.00170915,-0.00269878l4.03767e-007 -2.01883e-006 0 0c9.89229e-005,-0.000320995 0.000178869,-0.00066137 0.000240241,-0.00102113 6.29876e-005,-0.00036985 0.000107806,-0.000764735 0.000134051,-0.00118384 0.0001393,-0.0022292 -0.000243875,-0.0051125 -0.00114993,-0.00864949l-0.00954424 -0.0372677c-0.000522071,-0.00203862 -0.00100699,-0.00325234 -0.00145518,-0.00364077 -0.000362986,-0.000315342 -0.00118546,-0.000365005 -0.00246621,-0.000149394l-0.000737682 0.000188963 -0.00537535 0.00137685c-0.000530953,0.000135666 -0.0010716,-0.000184521 -0.00120767,-0.000715475l-0.00181534 -0.00708934c-0.000136069,-0.000530953 0.000184118,-0.0010716 0.000715071,-0.00120767l0.0269474 -0.00690118c0.000530953,-0.000136069 0.0010716,0.000184118 0.00120767,0.000715071l0.00181574 0.00708974c0.000136069,0.00053055 -0.000184118,0.0010716 -0.000715071,0.00120726 -2.90712e-005,7.67157e-006 -5.81424e-005,1.37281e-005 -8.72137e-005,1.81695e-005l-0.0052199 0.00133687 1.2113e-006 4.03767e-006c-0.000333915,8.51948e-005 -0.000573753,0.000194616 -0.000719109,0.000327859 -9.56928e-005,8.76174e-005 -0.000153835,0.00020148 -0.000174024,0.000340376l-4.03767e-007 2.82637e-006c-8.88287e-006,6.33914e-005 -1.41318e-005,0.000137685 -1.49394e-005,0.000223687 -8.07534e-007,9.60965e-005 4.03767e-006,0.000218034 1.53431e-005,0.000366217 5.895e-005,0.000788961 0.000293539,0.0019833 0.000702958,0.00358222l-4.03767e-006 8.07534e-007 0.00917641 0.0358307 4.03767e-006 -1.2113e-006c0.00164252,0.00641384 0.00196594,0.011664 0.000970656,0.0157489 -0.000510361,0.00209353 -0.00138936,0.00398801 -0.002637,0.00568342 -0.0012432,0.00168896 -0.00284858,0.00318007 -0.00481532,0.00447212 -3.06863e-005,2.01883e-005 -6.21801e-005,3.83579e-005 -9.40777e-005,5.45085e-005 -0.000955716,0.000593134 -0.00191063,0.00107321 -0.00286392,0.00143983 -0.000978327,0.000376715 -0.00196594,0.000639163 -0.00296203,0.000787749l4.03767e-007 4.03767e-007c-0.0037732,0.000677521 -0.00709863,0.00028829 -0.00997547,-0.0011685 -0.00286392,-0.00144993 -0.005102,-0.00367186 -0.00671384,-0.00666538 -7.2678e-006,-1.37281e-005 -1.45356e-005,-2.78599e-005 -2.09959e-005,-4.19918e-005 -0.000890306,-0.00168007 -0.00151776,-0.00332018 -0.00188196,-0.0049195 -0.000374292,-0.00164414 -0.000472811,-0.00323861 -0.000295961,-0.00478181l4.03767e-007 -3.23014e-006c4.76445e-005,-0.000413457 0.000116689,-0.000830549 0.000207536,-0.00125047 8.8425e-005,-0.00040942 0.000193404,-0.00079421 0.000315342,-0.00115437 0.000662178,-0.00195504 0.00183229,-0.00337509 0.00351116,-0.00425974 1.04979e-005,-5.24897e-006 2.09959e-005,-1.04979e-005 3.18976e-005,-1.57469e-005l0 -4.03767e-007 2.4226e-006 -1.2113e-006c0.000286271,-0.000137685 0.000585058,-0.000254777 0.000895959,-0.000351277 0.000307267,-9.5289e-005 0.000609688,-0.000163526 0.000906457,-0.000204306 0.00156339,-0.0002144 0.00307267,0.000257603 0.00452703,0.00141641 0.000965407,0.000768772 0.00173256,0.00170147 0.00230066,0.0027977 0.000554372,0.00106877 0.000912917,0.00228855 0.00107604,0.00365813l1.61507e-006 -4.03767e-007 8.07534e-007 4.8452e-006c6.54102e-005,0.000492192 0.000101749,0.00096581 0.000109421,0.00141964 7.67157e-006,0.000450604 -1.49394e-005,0.000899189 -6.78328e-005,0.00134535 -0.000245087,0.00207698 -0.00115114,0.00375624 -0.00271735,0.00503699z"/>
  <path fill="#DA251D" fill-rule="nonzero" d="M0.280425 0.116797c1.61507e-005,-0.000802285 0.000170793,-0.00157106 0.000463524,-0.00230632l3.10901e-005 -7.71195e-005 4.03767e-007 4.03767e-007c5.93537e-005,-0.000143741 0.000121938,-0.000280214 0.000187752,-0.000409823l8.07534e-007 -1.61507e-006 2.4226e-006 -4.44144e-006 1.2113e-005 -2.34185e-005c7.02554e-005,-0.000135666 0.000144145,-0.00026366 0.000221668,-0.000383175l4.03767e-006 -6.46027e-006c4.23955e-005,-6.46027e-005 8.55986e-005,-0.000127187 0.000129609,-0.000187348l8.07534e-007 -8.07534e-007 1.61507e-005 -2.13996e-005 1.2113e-006 -2.01883e-006 1.53431e-005 -2.01883e-005c3.35127e-005,-4.40106e-005 6.78328e-005,-8.68099e-005 0.000102557,-0.000127994l4.03767e-007 -4.03767e-007 6.0565e-006 -7.2678e-006 1.13055e-005 -1.33243e-005 6.86404e-006 -8.07534e-006 1.09017e-005 -1.2113e-005 7.2678e-006 -8.47911e-006 2.78599e-005 -3.14938e-005 8.88287e-006 -1.00942e-005 9.28664e-006 -9.69041e-006 4.72407e-005 -5.04709e-005 6.86404e-006 -7.67157e-006 1.2113e-005 -1.2113e-005 6.0565e-006 -6.46027e-006 1.29205e-005 -1.29205e-005 5.65274e-006 -5.65274e-006 1.33243e-005 -1.33243e-005 5.24897e-006 -5.24897e-006 1.41318e-005 -1.37281e-005 4.44144e-006 -4.03767e-006 1.49394e-005 -1.49394e-005 3.6339e-006 -3.23014e-006 3.75503e-005 -3.51277e-005 1.77657e-005 -1.61507e-005 1.2113e-006 -1.2113e-006 1.85733e-005 -1.65544e-005 8.07534e-007 -4.03767e-007 1.93808e-005 -1.69582e-005 1.00942e-005 -8.88287e-006 5.24897e-006 -4.44144e-006 3.23014e-006 -2.82637e-006 2.01883e-006 -1.61507e-006 1.57469e-005 -1.33243e-005 1.2113e-006 -1.2113e-006 4.03767e-006 -3.23014e-006 5.24897e-006 -4.03767e-006 5.24897e-006 -4.44144e-006 1.04979e-005 -8.88287e-006 5.24897e-006 -4.03767e-006c9.04438e-005,-7.34856e-005 0.000185329,-0.000140511 0.000284252,-0.000201076l0 0c0.000324225,-0.000199057 0.000693672,-0.000328262 0.00110753,-0.00038802 3.95692e-005,-5.65274e-006 7.83308e-005,-1.33243e-005 0.000115881,-2.30147e-005 8.15609e-005,-1.37281e-005 0.000161911,-2.38222e-005 0.000240645,-2.98788e-005 9.60965e-005,-7.2678e-006 0.000193001,-9.28664e-006 0.000289905,-5.65274e-006 0.00046837,1.81695e-005 0.000910091,0.000185329 0.00132395,0.000500671l8.07534e-007 8.07534e-007c8.92325e-005,6.82366e-005 0.000184925,0.000148586 0.000286675,0.000241453 0.000109421,0.000100134 0.000225302,0.000213189 0.000346836,0.000339164 0.000163122,0.000168371 0.000335934,0.000359756 0.000518437,0.000573349l8.47911e-006 9.69041e-006 1.8977e-005 2.22072e-005 1.61507e-005 1.8977e-005 1.09017e-005 1.29205e-005 2.4226e-005 2.86675e-005 3.23014e-006 4.03767e-006 2.78599e-005 3.27051e-005 4.44144e-006 5.65274e-006 2.34185e-005 2.74561e-005 1.25168e-005 1.49394e-005 1.53431e-005 1.85733e-005 2.05921e-005 2.46298e-005 7.2678e-006 9.28664e-006 2.82637e-005 3.39164e-005 4.03767e-007 8.07534e-007 2.78599e-005 3.35127e-005 8.88287e-006 1.09017e-005 1.97846e-005 2.38222e-005 1.69582e-005 2.09959e-005 1.17092e-005 1.41318e-005 2.50335e-005 3.10901e-005 3.6339e-006 4.44144e-006 2.90712e-005 3.59353e-005 4.44144e-006 5.65274e-006 5.3701e-005 6.66215e-005 2.13996e-005 2.66486e-005 8.07534e-006 1.00942e-005 2.9475e-005 3.71466e-005 4.03767e-007 4.03767e-007 2.9475e-005 3.67428e-005 0.000120323 0.000153028 4.8452e-006 6.0565e-006 0.000115074 0.000148586 2.4226e-006 3.23014e-006 4.03767e-007 8.07534e-007 3.06863e-005 3.95692e-005 3.10901e-005 4.07805e-005 1.85733e-005 2.38222e-005 1.29205e-005 1.7362e-005 5.24897e-005 6.90441e-005 4.23955e-005 5.57198e-005 1.41318e-005 1.8977e-005 1.77657e-005 2.34185e-005 2.30147e-005 3.10901e-005 8.88287e-006 1.17092e-005 3.23014e-005 4.27993e-005 4.03767e-007 4.03767e-007 6.70253e-005 9.04438e-005 5.85462e-005 7.87345e-005 4.44144e-006 5.65274e-006 3.27051e-005 4.48181e-005 5.24897e-006 6.86404e-006 6.13726e-005 8.3176e-005 2.38222e-005 3.31089e-005 9.28664e-006 1.29205e-005 3.35127e-005 4.56257e-005 4.03767e-007 4.03767e-007 4.32031e-005 5.93537e-005 2.4226e-005 3.31089e-005 4.03767e-006 6.0565e-006c8.72137e-005,0.000120323 0.000176042,0.000243875 0.000266082,0.000370658l5.65274e-006 8.07534e-006 1.00942e-005 1.41318e-005 0.000129205 0.000182906 2.4226e-006 3.23014e-006 4.8452e-006 7.2678e-006 8.07534e-007 8.07534e-007 6.5814e-005 9.36739e-005 2.58411e-005 3.67428e-005 1.00942e-005 1.49394e-005 3.6339e-005 5.16822e-005 2.18034e-005 2.9475e-005 -4.03767e-007 4.03767e-007 8.07534e-007 1.2113e-006c1.37281e-005,1.85733e-005 2.86675e-005,3.6339e-005 4.32031e-005,5.3701e-005 0.000109017,0.000153028 0.000236204,0.000337953 0.000381963,0.000554372 0.00014253,0.000211978 0.000284252,0.000430819 0.000425167,0.00065491l2.01883e-006 3.6339e-006 2.4226e-006 3.23014e-006 2.01883e-006 3.6339e-006 2.4226e-006 4.03767e-006 2.4226e-006 3.23014e-006 2.01883e-005 3.31089e-005 2.4226e-006 3.6339e-006 2.4226e-006 3.6339e-006 2.01883e-006 3.6339e-006 1.61507e-005 2.54373e-005 1.61507e-006 2.4226e-006 4.03767e-007 1.2113e-006 1.17092e-005 1.85733e-005 2.01883e-006 3.6339e-006 2.4226e-006 3.6339e-006 2.4226e-006 3.6339e-006 2.01883e-006 3.6339e-006 2.4226e-006 3.6339e-006 2.4226e-006 3.6339e-006 2.01883e-006 3.6339e-006 6.86404e-006 1.13055e-005 2.01883e-006 3.23014e-006 1.17092e-005 1.85733e-005 2.01883e-006 3.6339e-006 2.4226e-006 3.6339e-006 2.4226e-006 3.6339e-006 8.07534e-007 1.2113e-006 1.2113e-006 2.82637e-006 2.4226e-006 3.23014e-006 2.4226e-006 4.03767e-006 2.01883e-006 3.6339e-006 2.01883e-006 3.6339e-006 2.4226e-006 3.6339e-006 2.4226e-006 3.6339e-006 2.01883e-006 3.6339e-006 2.4226e-006 3.6339e-006 2.01883e-006 3.6339e-006 2.4226e-006 4.03767e-006 2.4226e-006 3.23014e-006c0.000548719,0.000895151 0.00106675,0.00185975 0.00155289,0.0028938 -0.000638759,0.000467158 -0.00129246,0.000846699 -0.0019611,0.00113862l-5.65274e-006 2.01883e-006 -9.36739e-005 4.03767e-005 -2.01883e-006 8.07534e-007c-5.93537e-005,2.50335e-005 -0.000118707,4.92596e-005 -0.000178061,7.30818e-005l-7.67157e-006 2.82637e-006 -9.40777e-005 3.67428e-005 -4.03767e-007 0 -9.44815e-005 3.55315e-005 -7.67157e-006 2.82637e-006 -7.71195e-005 2.82637e-005 -9.69041e-006 3.23014e-006 -1.57469e-005 5.65274e-006 -7.71195e-005 2.70524e-005 -1.61507e-006 8.07534e-007 -9.5289e-005 3.18976e-005 -6.0565e-006 2.01883e-006 -7.71195e-005 2.54373e-005 -1.2113e-005 3.6339e-006 -1.37281e-005 4.44144e-006 -2.58411e-005 8.07534e-006 -8.07534e-006 2.4226e-006 -1.77657e-005 5.65274e-006 -2.58411e-005 8.07534e-006 -4.03767e-006 1.2113e-006 -4.76445e-005 1.41318e-005 -1.7362e-005 5.24897e-006 -1.69582e-005 5.24897e-006 -1.7362e-005 5.24897e-006 -6.0565e-006 1.61507e-006 -1.13055e-005 3.23014e-006 -1.7362e-005 5.24897e-006 -1.69582e-005 4.8452e-006 -1.7362e-005 4.8452e-006 -1.69582e-005 4.8452e-006 -1.7362e-005 4.8452e-006 -3.4724e-005 9.69041e-006 -1.69582e-005 4.8452e-006 -1.77657e-005 4.44144e-006 -6.0565e-006 2.01883e-006 -1.09017e-005 2.82637e-006 -1.7362e-005 4.44144e-006 -0.000104172 2.74561e-005 -1.69582e-005 4.03767e-006 -1.77657e-005 4.44144e-006 -3.4724e-005 8.47911e-006 -1.69582e-005 4.44144e-006 -1.33243e-005 3.23014e-006 -4.44144e-006 8.07534e-007 -1.69582e-005 4.03767e-006c-0.000151009,3.59353e-005 -0.000302421,6.78328e-005 -0.000454642,9.5289e-005l-1.77657e-005 3.23014e-006c-5.24897e-005,9.28664e-006 -0.000105383,1.81695e-005 -0.000158277,2.66486e-005l0 4.03767e-007c-0.00435099,0.00069569 -0.00665044,-0.00123149 -0.00655717,-0.00580698zm0.00122503 -0.0142635l-4.03767e-007 0 -6.41989e-005 1.85733e-005 -4.03767e-007 0 -8.47911e-006 2.4226e-006 -2.38222e-005 6.86404e-006 0 0 -8.47911e-006 2.4226e-006 -2.26109e-005 6.86404e-006 -1.2113e-006 4.03767e-007 -8.47911e-006 2.4226e-006 -8.07534e-006 2.4226e-006 -4.40106e-005 1.33243e-005 -8.07534e-006 2.4226e-006 -1.2113e-005 3.6339e-006 -8.07534e-006 2.4226e-006 -8.07534e-006 2.4226e-006 0 4.03767e-007 -1.57469e-005 4.8452e-006 -8.07534e-006 2.4226e-006 -8.07534e-006 2.4226e-006 -2.82637e-006 8.07534e-007 -0.000109017 3.51277e-005 0 0 -8.07534e-006 2.82637e-006 -1.61507e-006 4.03767e-007 -6.0565e-006 2.01883e-006 -8.07534e-006 2.4226e-006 -8.07534e-006 2.82637e-006 -1.37281e-005 4.44144e-006 -2.01883e-006 8.07534e-007 -8.07534e-006 2.82637e-006 -8.07534e-006 2.4226e-006 -1.57469e-005 5.24897e-006 -1.49394e-005 5.24897e-006 -1.49394e-005 5.24897e-006 -1.53431e-005 5.24897e-006 -2.58411e-005 8.88287e-006 -4.03767e-006 1.2113e-006c-3.99729e-005,1.41318e-005 -7.99458e-005,2.82637e-005 -0.000119515,4.27993e-005l-1.49394e-005 5.24897e-006 -3.23014e-006 1.2113e-006 -4.11842e-005 1.53431e-005 -1.45356e-005 5.65274e-006 -2.78599e-005 1.00942e-005 -2.01883e-006 8.07534e-007 -1.45356e-005 5.65274e-006 -1.49394e-005 5.65274e-006 -1.45356e-005 5.65274e-006 -1.09017e-005 4.03767e-006 -3.6339e-006 1.61507e-006 -1.49394e-005 6.0565e-006 -1.45356e-005 5.65274e-006 -2.4226e-006 8.07534e-007 -7.91383e-005 3.14938e-005 -1.37281e-005 5.24897e-006c-0.00131911,0.00053378 -0.00246903,0.00137362 -0.00344978,0.00251951l-4.44144e-006 5.24897e-006c-0.00030444,0.000356122 -0.000585866,0.000733644 -0.000844277,0.00113135 -0.000260026,0.000400133 -0.00049623,0.000818839 -0.000709015,0.00125531 -0.000868503,0.00178465 -0.00138371,0.0039343 -0.00154562,0.00644816 -0.000144952,-0.000205921 -0.000286675,-0.000413861 -0.00042557,-0.00062382 -0.00066783,-0.00100901 -0.00127267,-0.00206486 -0.00181412,-0.00316715 -0.00282556,-0.00575287 -0.00408087,-0.0129767 -0.00376674,-0.0216706l8.07534e-007 0 4.03767e-007 -5.24897e-006c3.31089e-005,-0.000762312 8.3176e-005,-0.00153189 0.000149394,-0.00230834 6.54102e-005,-0.000764735 0.000144952,-0.00150767 0.000238626,-0.00222799 0.000484924,-0.00373323 0.00136312,-0.00711397 0.00263458,-0.0101426l1.2113e-006 8.07534e-007c0.0013829,-0.00317563 0.00305894,-0.00558248 0.00502811,-0.00722097 0.0019191,-0.00159609 0.00413861,-0.00246661 0.00665852,-0.00261197 0.00251991,-0.000144952 0.00482461,0.000465543 0.0069141,0.00183108 0.00214441,0.00140147 0.00408572,0.00360039 0.00582353,0.00659634 9.69041e-006,1.7362e-005 2.05921e-005,3.39164e-005 3.10901e-005,5.04709e-005 0.00114993,0.00196634 0.00211291,0.00413215 0.00288855,0.00649661 0.0007825,0.00238667 0.0013724,0.00497845 0.00176971,0.00777615 4.03767e-006,2.78599e-005 9.28664e-006,5.53161e-005 1.53431e-005,8.23684e-005 0.000818436,0.00533699 0.00092826,0.0101491 0.000330281,0.0144355 -0.000519648,0.00372192 -0.0015759,0.00704169 -0.00316917,0.00995891l-0.00104091 -0.00132678c-1.7362e-005,-2.22072e-005 -3.51277e-005,-4.27993e-005 -5.3701e-005,-6.29876e-005 -0.000511573,-0.000647238 -0.00100578,-0.00124441 -0.00148223,-0.0017903 -0.000520859,-0.000596767 -0.00101669,-0.00113378 -0.00148667,-0.00161022 -0.00167159,-0.00169461 -0.00325759,-0.00290349 -0.00475839,-0.00362785l0 -4.03767e-007 -4.76445e-005 -2.26109e-005 -6.78328e-005 -3.18976e-005 -3.83579e-005 -1.77657e-005 -4.44144e-006 -2.01883e-006 -6.17763e-005 -2.82637e-005 -1.85733e-005 -8.47911e-006 -6.86404e-005 -3.06863e-005 -3.83579e-005 -1.69582e-005 -3.79541e-005 -1.65544e-005 -3.83579e-005 -1.61507e-005 -3.79541e-005 -1.61507e-005 -9.28664e-006 -4.03767e-006 -6.70253e-005 -2.78599e-005 -3.79541e-005 -1.53431e-005 -3.79541e-005 -1.53431e-005 0 -4.03767e-007 -1.61507e-006 -4.03767e-007c-0.000189367,-7.59082e-005 -0.000377522,-0.000143741 -0.000564062,-0.000203499l-6.82366e-005 -2.13996e-005 -3.6339e-006 -1.2113e-006 -2.4226e-006 -8.07534e-007 -5.65274e-006 -1.61507e-006 -5.97575e-005 -1.85733e-005 -8.35797e-005 -2.4226e-005 -3.71466e-005 -1.09017e-005 -2.01883e-006 -4.03767e-007 -5.20859e-005 -1.45356e-005 -3.31089e-005 -9.28664e-006c-3.27051e-005,-8.88287e-006 -6.54102e-005,-1.7362e-005 -9.81154e-005,-2.54373e-005l-3.67428e-005 -9.69041e-006 -3.71466e-005 -8.88287e-006 -3.67428e-005 -8.88287e-006 -3.67428e-005 -8.88287e-006 -1.2113e-005 -2.82637e-006 -6.13726e-005 -1.37281e-005 -3.23014e-005 -7.2678e-006 -4.44144e-006 -8.07534e-007 -3.67428e-005 -7.67157e-006 -3.67428e-005 -7.67157e-006 -7.06592e-005 -1.41318e-005 -2.4226e-006 -8.07534e-007 -3.6339e-005 -6.86404e-006 -1.93808e-005 -3.6339e-006 -9.12513e-005 -1.61507e-005 -3.6339e-005 -6.0565e-006 -5.08746e-005 -8.47911e-006 -4.6837e-005 -7.2678e-006 -8.19647e-005 -1.17092e-005c-1.33243e-005,-2.01883e-006 -2.62448e-005,-3.23014e-006 -3.91654e-005,-4.44144e-006l-5.20859e-005 -6.46027e-006 -6.46027e-006 -8.07534e-007 -4.52219e-005 -6.0565e-006 -6.46027e-006 -4.03767e-007 -9.60965e-005 -1.17092e-005 -1.61507e-006 -4.03767e-007c-6.62178e-005,-7.67157e-006 -0.000132032,-1.49394e-005 -0.000197846,-2.18034e-005l-6.46027e-006 -8.07534e-007c-0.00151211,-0.000155854 -0.00289864,-5.65274e-005 -0.00416001,0.000298788zm-0.0112574 -0.0423681c-4.8452e-005,3.14938e-005 -9.69041e-005,6.25839e-005 -0.000144952,9.44815e-005 -7.59082e-005,-0.000137685 -0.00014899,-0.000260833 -0.000219245,-0.000365813l0.000364198 0.000271331zm-0.00084468 -0.000629069c-0.000598383,0.000399729 -0.00118021,0.000828126 -0.00174468,0.00128438 -0.00289016,0.0023366 -0.00534224,0.00541653 -0.00735583,0.00923859 -0.00238949,0.00453632 -0.00388949,0.00958502 -0.00449917,0.0151453 -0.000606054,0.00552878 -0.000330685,0.0115582 0.000825703,0.0180875 0.000637548,0.0032588 0.00144064,0.00636296 0.00275329,0.00942392 0.00125168,0.00291923 0.00283081,0.00559581 0.0047382,0.00802971 0.00191305,0.00244158 0.00400456,0.00447051 0.00627373,0.00608557 0.00227684,0.00162032 0.00473053,0.00282031 0.00736107,0.00359877 0.00262852,0.000778463 0.00536445,0.00107765 0.00820737,0.000898785l0.000106998 6.74291e-005c0.00283364,-0.00018008 0.00567414,-0.000902419 0.00870764,-0.00202933l1.29205e-005 -4.44144e-006c0.000132032,-4.48181e-005 0.000227321,-7.87345e-005 0.000289905,-0.000102557 0.000109825,-4.11842e-005 0.000220053,-8.51948e-005 0.000330685,-0.000131224 1.65544e-005,-6.86404e-006 3.31089e-005,-1.41318e-005 4.92596e-005,-2.18034e-005 0.000219245,-9.32702e-005 0.000437683,-0.000194212 0.000654102,-0.000303229 4.88558e-005,9.32702e-005 9.77116e-005,0.000185329 0.000147375,0.000275773 0.000215612,0.000393673 0.000436472,0.000760697 0.000661774,0.00110067 1.57469e-005,2.4226e-005 3.31089e-005,4.76445e-005 5.04709e-005,7.02554e-005 0.000154643,0.000222879 0.000296769,0.000422744 0.000427185,0.000599998 0.000146567,0.000198653 0.000307267,0.000409016 0.00048129,0.000629876 0.000839431,0.00106594 0.00173701,0.00201924 0.00269191,0.00285988l1.65544e-005 1.41318e-005 -4.03767e-007 4.03767e-007c0.00515489,0.00433605 0.0098616,0.00447293 0.0141205,0.000411438 2.05921e-005,-1.97846e-005 3.99729e-005,-3.95692e-005 5.85462e-005,-6.01613e-005 0.00169663,-0.00169703 0.00291722,-0.00391815 0.00366136,-0.00666417 0.000731222,-0.00269757 0.00100215,-0.00590994 0.000813187,-0.0096363l0 0 -0.000223283 -0.00513834c-2.50335e-005,-0.000542663 -0.000482905,-0.000962984 -0.00102516,-0.000942392l0 0 -0.00446607 0.000157873c-0.000545489,2.05921e-005 -0.000971463,0.000479675 -0.000950467,0.00102516l8.07534e-007 1.93808e-005 -3.6339e-006 4.03767e-007 0.000198653 0.00345544c6.0565e-005,0.00105343 9.28664e-006,0.00210928 -0.000154239,0.00316755l-8.07534e-007 -4.03767e-007c-0.000373484,0.0023471 -0.00115235,0.0038479 -0.0023362,0.0045024l-1.61507e-006 -2.82637e-006 -2.01883e-006 8.07534e-007c-2.22072e-005,1.2113e-005 -4.32031e-005,2.50335e-005 -6.41989e-005,3.87616e-005 -0.000125572,6.50065e-005 -0.000253969,0.000118707 -0.000383982,0.000161507l-3.6339e-006 1.61507e-006 -4.03767e-007 -1.2113e-006c-0.000144549,4.76445e-005 -0.000284252,7.91383e-005 -0.000418706,9.40777e-005 -0.000759082,8.35797e-005 -0.00157792,-0.000304036 -0.00245531,-0.00116285l-1.61507e-006 -1.61507e-006c-4.1588e-005,-4.03767e-005 -0.000106594,-0.000105787 -0.000193001,-0.000193001 -9.40777e-005,-9.5289e-005 -0.000151816,-0.000154239 -0.000174831,-0.000178465 -0.00026689,-0.000281022 -0.000459891,-0.000510765 -0.000578194,-0.00068923 -4.32031e-005,-6.62178e-005 -9.32702e-005,-0.000125168 -0.000148586,-0.000177254 -0.000115881,-0.000122745 -0.000264064,-0.000306055 -0.00044374,-0.000549931 -9.5289e-005,-0.000129205 -0.000201883,-0.00027981 -0.000320187,-0.000453026 0.000417899,-0.000490173 0.000834182,-0.00101184 0.00124925,-0.001565 0.000570926,-0.000760293 0.00115598,-0.00160618 0.00175517,-0.00253687 6.86404e-006,-1.04979e-005 1.37281e-005,-2.09959e-005 2.01883e-005,-3.14938e-005l2.82637e-006 1.61507e-006 1.61507e-006 -2.82637e-006 8.07534e-007 4.03767e-007 1.2113e-006 -1.61507e-006c7.2678e-006,-1.25168e-005 1.41318e-005,-2.50335e-005 2.09959e-005,-3.75503e-005 0.000539433,-0.000911302 0.00104333,-0.00187388 0.0015113,-0.00288774 0.00046837,-0.00101507 0.00089071,-0.00206446 0.00126621,-0.00314656 0.00192758,-0.00555179 0.00267617,-0.0120629 0.00224616,-0.019533 -0.00031938,-0.00555341 -0.00125854,-0.0105633 -0.00281668,-0.0150302 -0.0015654,-0.00448787 -0.00375786,-0.00842621 -0.00657777,-0.0118146 -0.00834627,-0.0100308 -0.0234617,-0.0127061 -0.0343719,-0.00541815z"/>
  <path fill="#DA251D" fill-rule="nonzero" d="M0.399178 0.122738l-0.0286727 -0.003602c-0.000543874,-6.86404e-005 -0.000929471,-0.00056487 -0.000861235,-0.00110834l0.000899996 -0.00716323c6.82366e-005,-0.000543874 0.000564466,-0.000929471 0.00110834,-0.000860831l0.00657857 0.000826107c9.65003e-005,1.2113e-005 0.000173216,1.7362e-005 0.000230551,1.61507e-005 1.17092e-005,-4.03767e-007 8.07534e-006,3.6339e-006 4.03767e-006,6.46027e-006 8.07534e-005,-2.54373e-005 0.000165544,-4.11842e-005 0.000253566,-4.48181e-005 0.000310901,-1.41318e-005 0.000560025,-4.96633e-005 0.000746565,-0.000106191 0.000116689,-3.55315e-005 0.000194212,-7.22743e-005 0.000232974,-0.000109421 0.000123553,-0.000119919 0.000267294,-0.000365005 0.000430819,-0.000734856 5.08746e-005,-0.000115477 8.88287e-005,-0.000204306 0.000113459,-0.000266486 2.58411e-005,-6.5814e-005 5.32972e-005,-0.000137281 8.19647e-005,-0.0002144l0.000446162 -0.00299676c2.01883e-006,-1.77657e-005 4.03767e-006,-3.55315e-005 7.2678e-006,-5.32972e-005l0.000524897 -0.00305046 3.23014e-006 -2.98788e-005 0.00525139 -0.0418008c0.000143741,-0.00114629 0.000228128,-0.00206204 0.000253162,-0.00274763 2.30147e-005,-0.000642393 1.61507e-006,-0.00109017 -6.46027e-005,-0.00134293 -3.4724e-005,-0.000133243 -0.000114266,-0.000250335 -0.000238222,-0.00035047 -0.000167967,-0.000136069 -0.000408208,-0.000248317 -0.00072032,-0.000336742l-0.000598383 -7.51006e-005 -0.0067211 -0.00084468c-0.000543874,-6.82366e-005 -0.000929068,-0.000564466 -0.000860831,-0.00110834l0.000912109 -0.00726094c6.82366e-005,-0.000543874 0.000564466,-0.000929471 0.00110834,-0.000861235l0.0271 0.00340456c0.00054347,6.82366e-005 0.000929068,0.000564466 0.000860831,0.00110834l-0.000912109 0.00726134c-6.82366e-005,0.000543874 -0.00056487,0.000929068 -0.00110834,0.000860831l-0.0054343 -0.00068277c-0.000402959,-5.04709e-005 -0.000696094,2.82637e-006 -0.000879808,0.000159488 -0.000214804,0.000183714 -0.000365409,0.000529338 -0.000451008,0.00103647 -3.23014e-006,3.23014e-005 -8.07534e-006,6.50065e-005 -1.45356e-005,9.73078e-005l-0.000184118 0.000919377 -0.000281426 0.00224131 -0.0026685 0.0212398 0.0211017 -0.0195649 1.2113e-006 1.2113e-006 1.17092e-005 -1.13055e-005c0.000481694,-0.000432838 0.000905649,-0.000876982 0.00127187,-0.00133082 0.000354911,-0.000440106 0.000659351,-0.000893536 0.000912513,-0.00136029 7.51006e-005,-0.000165141 0.0001179,-0.000313323 0.000127994,-0.000442932 7.67157e-006,-9.77116e-005 -5.65274e-006,-0.000188963 -4.03767e-005,-0.000273754 -3.55315e-005,-8.80212e-005 -0.000112651,-0.000159892 -0.000230147,-0.000215612 -4.40106e-005,-2.05921e-005 -8.23684e-005,-3.6339e-005 -0.000114266,-4.72407e-005 -4.07805e-005,-1.41318e-005 -9.16551e-005,-2.82637e-005 -0.000153431,-4.27993e-005l0 -4.03767e-007 -1.2113e-006 -4.03767e-007 0 0 -3.02825e-005 -7.67157e-006c-0.000207536,-5.53161e-005 -0.000479271,-0.000112247 -0.000815205,-0.000169178 -0.000308478,-5.28935e-005 -0.000728395,-0.000112651 -0.00125975,-0.000179273l-0.00457629 -0.000574964c-0.000543874,-6.82366e-005 -0.000929471,-0.000564466 -0.000861235,-0.00110834l0.000912513 -0.00726134c6.82366e-005,-0.00054347 0.000564466,-0.000929068 0.00110834,-0.000860831l0.0271715 0.00341345c0.00054347,6.82366e-005 0.000929068,0.000564466 0.000860831,0.00110834l-0.000912109 0.00726134c-6.86404e-005,0.00054347 -0.00056487,0.000929068 -0.00110834,0.000860831l-0.0050055 -0.000628665c-0.000338357,-4.27993e-005 -0.000616148,-5.24897e-005 -0.000833375,-2.9475e-005 -6.17763e-005,6.46027e-006 -9.73078e-005,1.04979e-005 -0.000102557,1.13055e-005 -1.45356e-005,2.4226e-006 -3.14938e-005,6.46027e-006 -5.12784e-005,1.09017e-005 -0.000415072,0.000151816 -0.000962177,0.000467562 -0.0016405,0.000946833 -0.000107402,7.59082e-005 -0.000258007,0.00018654 -0.000451411,0.000331493 -0.000139703,0.000104979 -0.000281426,0.000213996 -0.000424763,0.000326647 -1.53431e-005,1.37281e-005 -3.10901e-005,2.70524e-005 -4.72407e-005,4.03767e-005l-0.00299393 0.00284979 -1.2113e-006 -1.61507e-006 -1.61507e-005 1.49394e-005 -0.0142178 0.0129908 0.0157291 0.0316537 -1.61507e-006 8.07534e-007 0.000236607 0.000427589c1.13055e-005,1.7362e-005 2.22072e-005,3.4724e-005 3.23014e-005,5.28935e-005l0.00176648 0.00307832 1.49394e-005 2.4226e-005c0.000445759,0.000750603 0.000789768,0.00128317 0.00103203,0.0015973 5.08746e-005,6.62178e-005 8.8425e-005,0.000113055 0.000112247,0.000140511 2.22072e-005,2.54373e-005 4.44144e-005,4.88558e-005 6.66215e-005,7.02554e-005l8.07534e-007 4.03767e-007c5.20859e-005,4.96633e-005 0.000149394,0.000104172 0.000291923,0.000163122 0.000192597,7.99458e-005 0.00045343,0.000155046 0.000781693,0.000225302l-4.03767e-007 2.82637e-006c0.000109017,2.30147e-005 0.000216015,6.46027e-005 0.000316149,0.000126379 1.04979e-005,6.46027e-006 -7.2678e-006,-6.86404e-006 8.47911e-006,-2.01883e-006 3.43202e-005,1.00942e-005 8.64061e-005,1.97846e-005 0.00015545,2.86675e-005l0.00271695 0.000341183c0.000543874,6.82366e-005 0.000929471,0.000564466 0.000860831,0.00110834l-0.000899593 0.00716323c-6.82366e-005,0.00054347 -0.00056487,0.000929068 -0.00110834,0.000860831l-0.0291023 -0.00365611c-0.00054347,-6.82366e-005 -0.000929068,-0.000564466 -0.000860831,-0.00110834l0.000899996 -0.00716282c6.82366e-005,-0.000543874 0.000564466,-0.000929471 0.00110834,-0.000861235l0.00321762 0.000404171c0.000365813,4.60294e-005 0.000769176,8.96363e-005 0.00120888,0.00013082l0.000311304 2.86675e-005 5.65274e-006 4.03767e-007 0.000346432 3.06863e-005 2.9475e-005 2.82637e-006c0.000341587,2.9475e-005 0.000662581,5.895e-005 0.000965003,8.8425e-005l0 0 4.03767e-006 4.03767e-007 0.000161911 1.61507e-005c0.000295154,2.9475e-005 0.000552353,5.77387e-005 0.000771599,8.43873e-005 0.000246298,8.07534e-007 0.000447777,-4.52219e-005 0.000604439,-0.000138492 2.50335e-005,-1.49394e-005 5.3701e-005,-3.51277e-005 8.55986e-005,-5.97575e-005 1.85733e-005,-1.45356e-005 4.23955e-005,-3.55315e-005 7.06592e-005,-6.29876e-005l4.03767e-007 0 2.01883e-006 -2.4226e-006 1.61507e-006 -1.61507e-006 1.2113e-006 -1.2113e-006 8.07534e-007 -8.07534e-007 1.2113e-006 -1.61507e-006 0 4.03767e-007 3.23014e-006 -3.6339e-006c8.96363e-005,-8.8425e-005 0.000154643,-0.000186944 0.000194616,-0.00029475 4.76445e-005,-0.000127994 6.82366e-005,-0.000276177 6.21801e-005,-0.000444144l8.07534e-007 0 -4.03767e-007 -3.14938e-005c-2.82637e-006,-0.000967022 -0.000280618,-0.00198573 -0.000832164,-0.00305571l8.07534e-007 -4.03767e-007 -0.0113891 -0.0218716 -0.00933549 0.00879808 -0.00122543 0.0097538 4.03767e-006 8.07534e-007c-0.00019825,0.00157792 -0.000259218,0.00273915 -0.00018331,0.00348289 1.41318e-005,0.000137281 2.98788e-005,0.000247509 4.76445e-005,0.000330281 1.49394e-005,7.14667e-005 3.27051e-005,0.000132436 5.20859e-005,0.000182906l8.07534e-007 2.01883e-006c5.49123e-005,0.000138896 0.000196634,0.000276984 0.000424763,0.000413054 0.000318572,0.000190578 0.000759082,0.00035047 0.00132072,0.000478868 9.28664e-005,1.25168e-005 0.000209555,3.71466e-005 0.000349258,7.38893e-005 1.93808e-005,4.03767e-006 3.91654e-005,8.88287e-006 5.85462e-005,1.41318e-005l6.98517e-005 1.97846e-005 -8.07534e-007 2.01883e-006 1.17092e-005 3.23014e-006 2.98788e-005 8.88287e-006c1.77657e-005,4.03767e-006 3.55315e-005,8.88287e-006 5.28935e-005,1.41318e-005l6.46027e-006 2.01883e-006c8.03496e-005,2.4226e-005 0.000125168,3.79541e-005 0.000136473,4.07805e-005l0 8.07534e-007c1.77657e-005,3.23014e-006 3.55315e-005,7.2678e-006 5.3701e-005,1.13055e-005 5.00671e-005,1.2113e-005 5.895e-005,1.65544e-005 6.54102e-005,1.7362e-005l4.03767e-007 -4.03767e-006 3.23014e-006 4.03767e-007 0.00514843 0.000646835c0.00054347,6.82366e-005 0.000929068,0.000564466 0.000860831,0.00110834l-0.000899996 0.00716323c-6.82366e-005,0.00054347 -0.000564466,0.000929068 -0.00110834,0.000860831z"/>
  <path fill="#DA251D" fill-rule="nonzero" d="M0.490704 0.118919l0.00242139 -0.00680145c0.000183714,-0.000516014 0.00075141,-0.00078573 0.00126742,-0.000602016l0.00149394 0.000531761 0.00014899 5.32972e-005 0.000709418 0.000157065m-0.00510644 0.00699405l0.000733644 -0.00206042 1.04979e-005 -2.90712e-005 0.00167725 -0.00471156 0.00149353 0.000531761 0.000203902 7.22743e-005 0.00023257 5.16822e-005 0.000269716 5.97575e-005 0.000277388 6.13726e-005c0.000971867,0.000135666 0.00175477,-2.26109e-005 0.00234952,-0.000476041 0.000594749,-0.000453026 0.00164131,-0.00163768 0.00313929,-0.00355355l0.0369838 -0.0486648 0.00902944 0.00321479 -0.00249447 0.0609422c-3.06863e-005,0.00194858 5.85462e-005,0.00334521 0.000268101,0.00418949 0.000209555,0.000844277 0.000666215,0.00156702 0.00137038,0.00216742 0.000476849,0.000379945 0.000760293,0.000585462 0.000851141,0.000617763l0.00156137 0.000555987 -0.00242139 0.00680145 -0.0212498 -0.00756498 0.00242099 -0.00680145 0.0050919 0.00181291c0.000678732,0.000241453 0.00116971,0.000223687 0.00147254,-5.32972e-005 0.000302421,-0.000276984 0.000563255,-0.000866484 0.0007825,-0.0017685l7.59082e-005 -0.00343686 0.000560025 -0.0112429 -0.0210464 -0.0074927 -0.0068063 0.00901935c-0.000871733,0.00115962 -0.00140794,0.00187832 -0.00160901,0.00215652 -0.00129609,0.00177819 -0.00121978,0.00292489 0.000228532,0.0034405l0.00515974 0.00183714 -0.00242099 0.00680105 -0.0181954 -0.00647723zm0.00535758 -0.00697144c7.38893e-005,4.44144e-006 0.000167967,4.44144e-006 0.000281426,8.07534e-007 0.000414669,-1.41318e-005 0.000751006,-0.000119111 0.00100821,-0.000315342 0.000245087,-0.00018654 0.000608477,-0.000552353 0.00108977,-0.00109744 0.000521263,-0.000589903 0.00114226,-0.00134576 0.00186298,-0.00226755l0.0369838 -0.0486644c0.00026689,-0.000352085 0.00072355,-0.000474426 0.00111843,-0.000333915l4.03767e-007 -4.03767e-007 0.00902944 0.00321439c0.00041911,0.000149394 0.000675098,0.000552353 0.000656525,0.000974693l8.07534e-007 0 -0.00249366 0.0609163 8.07534e-007 0c-3.23014e-006,0.000214804 -4.8452e-006,0.000473215 -4.44144e-006,0.000769983 4.03767e-007,0.000260026 3.23014e-006,0.000492999 7.67157e-006,0.000700132 2.46298e-005,0.00110915 0.000103364,0.00193081 0.000235396,0.00246419l4.03767e-007 1.2113e-006c2.22072e-005,8.80212e-005 4.80483e-005,0.000176446 7.87345e-005,0.000264871 3.06863e-005,8.88287e-005 6.29876e-005,0.000171197 9.65003e-005,0.000246298 0.000188963,0.000421936 0.000481694,0.000801477 0.000876578,0.00113822l5.65274e-006 5.24897e-006c0.000103768,8.23684e-005 0.000196634,0.000155046 0.000278599,0.00021763 9.73078e-005,7.51006e-005 0.000172408,0.000132032 0.000224898,0.000169986 5.97575e-005,4.36068e-005 -6.86404e-006,3.10901e-005 3.18976e-005,4.48181e-005l-1.2113e-006 3.6339e-006 0.00156137 0.000555987c0.000514399,0.000182906 0.000782904,0.00074818 0.000599594,0.00126258l3.6339e-006 1.2113e-006 -0.00242099 0.00680145c-0.000183714,0.000516418 -0.00075141,0.00078573 -0.00126783,0.000602016 -2.82637e-005,-1.00942e-005 -5.53161e-005,-2.09959e-005 -8.23684e-005,-3.35127e-005l-0.0211663 -0.0075351c-0.000514399,-0.000182906 -0.000782904,-0.00074818 -0.000599998,-0.00126258l-3.6339e-006 -1.2113e-006 0.00242139 -0.00680145c0.000183714,-0.000516418 0.00075141,-0.00078573 0.00126742,-0.000602016l0.0050919 0.00181251c0.000222879,7.95421e-005 0.000390846,0.0001179 0.000503094,0.000115477 4.27993e-005,-5.65274e-005 9.40777e-005,-0.000151413 0.000152624,-0.000284252 9.81154e-005,-0.000222072 0.000190578,-0.000502286 0.000277388,-0.000841046l7.38893e-005 -0.00333754c4.03767e-007,-1.97846e-005 1.61507e-006,-3.91654e-005 3.23014e-006,-5.85462e-005l0.000521667 -0.0104729 -0.0196683 -0.00700172 -0.00636579 0.0084355c-0.000555987,0.000739701 -0.000911302,0.00121292 -0.00105464,0.00140511 -0.000282637,0.000379137 -0.000464332,0.00062382 -0.000544278,0.000734452l-2.01883e-006 3.23014e-006 8.07534e-007 4.03767e-007c-0.000508746,0.000698517 -0.000752218,0.00121453 -0.000730011,0.00154764 8.88287e-006,0.000138088 0.000172408,0.00026366 0.000490173,0.000376715l-1.2113e-006 3.6339e-006 0.00515974 0.00183714c0.000514399,0.000182906 0.000782904,0.00074818 0.000599998,0.00126258l3.6339e-006 1.2113e-006 -0.00242139 0.00680145c-0.000183714,0.000516014 -0.00075141,0.00078573 -0.00126742,0.000602016l-0.0181954 -0.00647723c-0.000516418,-0.000184118 -0.00078573,-0.00075141 -0.000602016,-0.00126783m0.030767 -0.0229578l0.0142485 0.00507212 0.0011899 -0.0257995 -0.0154384 0.0207274zm-0.00159528 0.000485328l0.0167692 0.00596969 0.00140067 -0.0303641 -0.0181699 0.0243944z"/>
  <path fill="#DA251D" fill-rule="nonzero" d="M0.677785 0.52474l-0.00242099 0.00680145c-0.000183714,0.000516418 -0.00075141,0.00078573 -0.00126783,0.000602016l-0.00149353 -0.000531761 -0.000149394 -5.28935e-005 -0.000709015 -0.000157065m0.00510604 -0.00699445l-0.000733644 0.00206042 -1.00942e-005 2.90712e-005 -0.00167765 0.00471196 -0.00149353 -0.000531761 -0.000203499 -7.2678e-005 -0.000232974 -5.12784e-005 -0.000269313 -5.97575e-005 -0.000277792 -6.17763e-005c-0.000971463,-0.000135666 -0.00175477,2.30147e-005 -0.00234952,0.000476041 -0.000594749,0.000453026 -0.00164131,0.00163768 -0.00313929,0.00355396l-0.0369834 0.0486644 -0.00902984 -0.00321439 0.00249447 -0.0609426c3.06863e-005,-0.00194858 -5.85462e-005,-0.00334521 -0.000268101,-0.00418949 -0.000209151,-0.000844277 -0.000666215,-0.00156662 -0.00136998,-0.00216742 -0.000476849,-0.000379541 -0.000760697,-0.000585462 -0.000851141,-0.000617763l-0.00156137 -0.000555987 0.00242099 -0.00680105 0.0212503 0.00756457 -0.00242139 0.00680145 -0.0050919 -0.00181251c-0.000678732,-0.000241856 -0.00116931,-0.000224091 -0.00147213,5.28935e-005 -0.000302825,0.000277388 -0.000563659,0.000866888 -0.0007825,0.0017685l-7.63119e-005 0.00343727 -0.000560025 0.0112429 0.0210468 0.0074923 0.00680589 -0.00901935c0.000871733,-0.00115921 0.00140834,-0.00187832 0.00160901,-0.00215652 0.00129609,-0.00177819 0.00121978,-0.00292489 -0.000228532,-0.0034405l-0.00515974 -0.00183674 0.00242139 -0.00680145 0.0181949 0.00647723zm-0.00535718 0.00697144c-7.38893e-005,-4.44144e-006 -0.000168371,-4.44144e-006 -0.000281426,-4.03767e-007 -0.000415072,1.41318e-005 -0.00075141,0.000119111 -0.00100861,0.000314938 -0.000245087,0.00018654 -0.000608477,0.000552757 -0.00108977,0.00109744 -0.000520859,0.000589903 -0.00114226,0.00134576 -0.00186298,0.00226755l-0.0369834 0.0486648c-0.00026689,0.000351681 -0.000723954,0.000474426 -0.00111884,0.000333511l0 4.03767e-007 -0.00902984 -0.00321439c-0.00041911,-0.000149394 -0.000674695,-0.000552353 -0.000656121,-0.00097429l-8.07534e-007 -4.03767e-007 0.00249326 -0.0609163 -8.07534e-007 0c3.6339e-006,-0.0002144 4.8452e-006,-0.000472811 4.44144e-006,-0.000769983 -4.03767e-007,-0.000259622 -2.82637e-006,-0.000492596 -7.67157e-006,-0.000699728 -2.46298e-005,-0.00110955 -0.000102961,-0.00193122 -0.000235396,-0.00246419l-4.03767e-007 -1.61507e-006c-2.18034e-005,-8.80212e-005 -4.80483e-005,-0.000176446 -7.83308e-005,-0.000264871 -3.06863e-005,-8.88287e-005 -6.29876e-005,-0.000171197 -9.69041e-005,-0.000246298 -0.000188963,-0.000421533 -0.00048129,-0.000801074 -0.000876578,-0.00113822l-5.65274e-006 -4.8452e-006c-0.000103768,-8.23684e-005 -0.000196634,-0.000155046 -0.000278195,-0.000218034 -9.73078e-005,-7.51006e-005 -0.000172408,-0.000131628 -0.000224898,-0.000169582 -6.01613e-005,-4.40106e-005 6.46027e-006,-3.14938e-005 -3.18976e-005,-4.52219e-005l1.2113e-006 -3.6339e-006 -0.00156137 -0.000555583c-0.000514399,-0.00018331 -0.000782904,-0.000748584 -0.000599998,-0.00126298l-3.6339e-006 -1.2113e-006 0.00242139 -0.00680145c0.000183714,-0.000516014 0.00075141,-0.00078573 0.00126742,-0.000602016 2.82637e-005,1.00942e-005 5.57198e-005,2.13996e-005 8.23684e-005,3.35127e-005l0.0211667 0.0075351c0.000514399,0.00018331 0.000782904,0.000748584 0.000599594,0.00126258l3.6339e-006 1.61507e-006 -0.00242099 0.00680105c-0.000183714,0.000516418 -0.00075141,0.000786134 -0.00126783,0.000602016l-0.0050919 -0.00181251c-0.000222476,-7.91383e-005 -0.000390443,-0.0001179 -0.00050269,-0.000115477 -4.32031e-005,5.65274e-005 -9.40777e-005,0.000151816 -0.000153028,0.000284656 -9.81154e-005,0.000221668 -0.000190578,0.000501882 -0.000276984,0.000841046l-7.38893e-005 0.00333754c-8.07534e-007,1.97846e-005 -2.01883e-006,3.87616e-005 -3.6339e-006,5.81424e-005l-0.000521667 0.0104729 0.0196687 0.00700172 0.00636539 -0.0084355c0.000555987,-0.000739297 0.000911302,-0.00121251 0.00105504,-0.00140511 0.000282637,-0.000378733 0.000463928,-0.000623416 0.000543874,-0.000734452l2.4226e-006 -3.23014e-006 -1.2113e-006 -4.03767e-007c0.00050915,-0.000698113 0.000752622,-0.00121413 0.000730414,-0.00154764 -9.28664e-006,-0.000137685 -0.000172812,-0.00026366 -0.000490577,-0.000376715l1.2113e-006 -3.6339e-006 -0.00515974 -0.00183674c-0.000514399,-0.00018331 -0.000782904,-0.000748584 -0.000599594,-0.00126258l-3.6339e-006 -1.61507e-006 0.00242099 -0.00680105c0.000183714,-0.000516418 0.00075141,-0.000786134 0.00126783,-0.000602016l0.0181949 0.00647723c0.000516418,0.000183714 0.000786134,0.00075141 0.000602016,0.00126742m-0.030767 0.0229582l-0.0142481 -0.00507252 -0.0011899 0.0257995 0.015438 -0.020727zm0.00159569 -0.000485732l-0.0167697 -0.00596969 -0.00140026 0.0303641 0.0181699 -0.0243944z"/>
  <path fill="#DA251D" d="M0.687624 0.284708c-0.0171771,-0.0372859 -0.0559936,-0.0422607 -0.0853099,-0.0153213 -0.00569957,-0.0394327 -0.0400565,-0.0592043 -0.076343,-0.0408115 -0.0241852,0.0122563 -0.0336604,0.0378471 -0.029731,0.0675219 0.00648975,0.0490084 0.0411624,0.0533089 0.0543628,0.122171 0.0531963,-0.0457008 0.082748,-0.0278341 0.118357,-0.0622318 0.0215612,-0.0208279 0.0299882,-0.0467473 0.0186645,-0.0713278z"/>
  <path fill="#DA251D" d="M0.540301 0.15636c-0.00595677,-0.0129302 -0.0194176,-0.0146555 -0.029584,-0.00531317 -0.00197684,-0.0136748 -0.0138912,-0.0205311 -0.0264746,-0.0141528 -0.00838705,0.00425045 -0.0116733,0.0131248 -0.0103102,0.0234157 0.0022506,0.0169954 0.0142744,0.0184869 0.0188519,0.0423669 0.0184477,-0.0158483 0.0286961,-0.00965245 0.0410445,-0.0215809 0.00747696,-0.00722299 0.0103994,-0.0162112 0.00647238,-0.0247356z"/>
  <path fill="#DA251D" d="M0.627488 0.488415c0.00595677,0.0129302 0.0194176,0.0146555 0.029584,0.00531317 0.00197684,0.0136748 0.0138912,0.0205311 0.0264746,0.0141528 0.00838705,-0.00425045 0.0116733,-0.0131248 0.0103102,-0.0234157 -0.0022506,-0.0169954 -0.0142744,-0.0184869 -0.0188519,-0.0423669 -0.0184477,0.0158483 -0.0286961,0.00965245 -0.0410445,0.0215809 -0.00747696,0.00722299 -0.0103994,0.0162112 -0.00647238,0.0247356z"/>
  <path fill="#DA251D" d="M0.429337 0.143624c-0.00859458,-0.0113495 -0.0221119,-0.0101438 -0.030035,0.00116366 -0.00486701,-0.0129314 -0.0179757,-0.0170696 -0.0288964,-0.00813792 -0.00727871,0.00595233 -0.00858207,0.0153254 -0.00504143,0.0250836 0.00584776,0.0161155 0.0179111,0.0149903 0.0275103,0.0373303 0.0146139,-0.0194402 0.0259533,-0.0155894 0.0354523,-0.0298913 0.00575166,-0.00865999 0.00667588,-0.0180666 0.00101022,-0.0255484z"/>
  <path fill="#DA251D" d="M0.314073 0.149822c-0.0105189,-0.0095931 -0.0235901,-0.00594466 -0.0293199,0.00661774 -0.00714183,-0.0118279 -0.0207855,-0.013508 -0.0298953,-0.00273592 -0.00607225,0.00717898 -0.00564587,0.0166328 -0.000386001,0.0255823 0.00868624,0.0147803 0.020343,0.0114751 0.0338522,0.0316921 0.010827,-0.021778 0.0226784,-0.0200579 0.0294116,-0.0358517 0.00407724,-0.00956322 0.00327172,-0.0189803 -0.00366257,-0.0253045z"/>
  <path fill="#DA251D" d="M0.209717 0.169419c-0.0121691,-0.00738853 -0.0242934,-0.00129165 -0.0274977,0.0121384 -0.00928543,-0.0102315 -0.0229969,-0.00925353 -0.0298626,0.00307105 -0.00457629,0.00821383 -0.00233781,0.0174084 0.00454642,0.0251781 0.0113697,0.0128313 0.0221716,0.00734371 0.0393204,0.0245817 0.0064316,-0.0234548 0.0183924,-0.0240488 0.0219593,-0.0408434 0.00215975,-0.0101689 -0.00044374,-0.0192548 -0.00846578,-0.0241259z"/>
  <path fill="#DA251D" d="M0.113656 0.212641c-0.0132759,-0.00513995 -0.0241432,0.00298868 -0.0249427,0.0167725 -0.0109356,-0.00844438 -0.0242632,-0.00507697 -0.0288613,0.00826067 -0.00306499,0.00888893 0.000751006,0.0175485 0.00889135,0.0239902 0.0134434,0.0106389 0.0231161,0.00334198 0.0430218,0.0173054 0.0022187,-0.0242192 0.01389,-0.0269014 0.0144565,-0.0440611 0.000343202,-0.0103905 -0.00381358,-0.0188789 -0.0125656,-0.0222677z"/>
 </g>
</svg>
